<?xml version="1.0" encoding="UTF-8"?>
<svg xmlns="http://www.w3.org/2000/svg" version="1.1" viewBox="0 0 487.6 798.3">
  <!-- Generator: Adobe Illustrator 28.6.0, SVG Export Plug-In . SVG Version: 1.2.0 Build 709)  -->
  <g>
    <g id="Layer_1">
      <g>
        <g>
          <path d="M178.2,115h239.1c12.3,0,22.4,10,22.4,22.4v318.6c0,12.3-10,22.4-22.4,22.4h-239.1c-12.3,0-22.4-10-22.4-22.4V137.4c0-12.3,10-22.4,22.4-22.4Z" transform="translate(595.5 593.4) rotate(180)" fill="#eaeaeb"/>
          <rect x="332.8" y="145.2" width="73" height="8.3" transform="translate(738.6 298.7) rotate(180)" fill="#4aafff"/>
          <rect x="352.2" y="163.5" width="53.6" height="8.3" transform="translate(758 335.3) rotate(180)" fill="#fff"/>
          <rect x="274" y="181.8" width="131.8" height="8.3" transform="translate(679.8 371.9) rotate(180)" fill="#fff"/>
          <rect x="189.3" y="234.4" width="90.4" height="8.3" fill="#4aafff"/>
          <rect x="189.3" y="252.7" width="122.4" height="8.3" fill="#fff"/>
          <rect x="189.3" y="270.9" width="163.2" height="8.3" fill="#fff"/>
          <rect x="189.3" y="323.6" width="99.6" height="8.3" fill="#4aafff"/>
          <rect x="189.3" y="341.8" width="137.7" height="8.3" fill="#fff"/>
          <rect x="189.3" y="360.1" width="132.3" height="8.3" fill="#fff"/>
        </g>
        <g>
          <path d="M354.8,768.6s-6.2,9.2-14.8,11.2c-8.6,2-17.2,5.2-17.2,10.6,0,5.5,25,8.7,34.9,3.2,14.8-8.2,16.3-5.7,17.9-9.8,1.6-4.1-2-15.1-1.9-16.4.1-1.6-18.9,1.2-18.9,1.2Z" fill="#353a3d"/>
          <path d="M355.8,764s-1.1,4.5-1,4.5c.2,0,19.5,2.4,18.9-1.2-.5-2.9-1.1-6-1.1-6l-16.8,2.7Z" fill="#81807e"/>
          <path d="M419.8,768s-4.4,8.8-11.9,11.8c-8,3.2-14.5,6.9-14.3,12.2.1,5.3,19.6,10.7,33.8.5,8.9-6.4,11.8-6.5,13.2-10.5,1.4-4.1-2.5-14.6-2.4-15.9,0-1.6-18.3,1.9-18.3,1.9Z" fill="#353a3d"/>
          <path d="M419.5,763.4s0,4.5.2,4.6c.2,0,18.8,1.6,18.3-1.9-.4-2.8-1.8-6.1-1.8-6.1l-16.8,3.4Z" fill="#81807e"/>
          <path d="M351.1,494.1s-17.3,76.5-21.3,99.7c-3.4,19.8-6.1,40.5-4.4,54.8,2,17.7,27.1,109.5,26,114.7-1,5.2,26.2.8,26.2.8,0,0-19.1-102.4-15.3-121.5,2.8-14.1,27.5-107.9,31.3-103.1,3.8,4.8,8.5,88.5,11.3,102.4,2.8,13.9,11.4,123.7,11.4,123.7,0,0,19.3,2.8,24.4-1.5,0,0,2.3-93.7.6-119.8-.7-9.9,11.6-119-4.2-162.9-8.3-23.2-86.1,12.7-86.1,12.7Z" fill="#2d3133"/>
          <path d="M275.7,424.6c12.4-1.7,51.2,15.5,54.7,14.2,2.4-.9,8.1-19.5,12.2-33.5,2.4-8.3,4.2-15,4.5-15.6h0c0,.3-.7,6.7.1,15,0,.5.1,1.1.2,1.6,0,.1,0,.3,0,.4.4,3,.9,6.2,1.8,9.4,1.2,4.8,1.8,11,2,17.6h0c0,0,0,.1,0,.2,0,.2,0,.3,0,.5s0,.1,0,.2c.3,12-.5,25-.8,31.9-.5,10.7,3,15.5,3.1,15.7h0s3.7-.5,3.7-.5l2.7-.4h0s3.6-.5,3.6-.5l14.1-2,5.1-.7,1.2-.2,8.9-1.3,25.2-3.5,2.8-.4,1.1-.2,9.5-1.3,4.3-.6h0s3.6-25.9,3.9-39.8c.3-12.8,7.1-38.9,8.2-43.1,0,0,0,0,0,0,0,0,0,0,0-.1,0,0,0-.1,0-.2,0,0,0,0,0,0,0,0,0,0,0,0,0,0,0,0,0,0,0,0,0,0,0,0,0,0,20.6,21.6,24.5,31,1.2,2.9,4.9,10.6,9.7,20.1,3.2-6.2,5.3-10.5,5.3-11.5s0-.3,0-.4c-.3-9.3-10.1-47.1-17.8-71.8-6-12-11.1-21.7-12.8-22.9-2.5-1.8-13.1-6.3-22.3-10-.3-.1-.6-.2-.9-.4-.9-.3-1.7-.7-2.5-1-.4-.2-.8-.3-1.2-.5-.2,0-.4-.2-.7-.2-.2,0-.4-.1-.5-.2h0c-4.6-1.8-8.1-3-8.8-3-.1,0-.3,0-.6,0-.3,0-.7,0-1.2,0-5.7.3-22.7,1.9-28.1,2.4-1,0-1.6.2-1.7.2h0s-2.6,1.2-6.5,3h0s-.4.2-.4.2c-2.4,1.1-5.1,2.5-8,4.1-5.7,3.1-12,6.8-17.2,9.2-5.1,2.4-12.1,5.8-12.7,6.3l-25.9,74.6-44.9-8.2,2.6,16.4Z" fill="#decbc4"/>
          <path d="M353.6,482.2s-1.9,2.3-2.4,11.9c0,0,77.9-9.1,86.1-12.7,0,0,.3-10.6-1.4-10.8-1.9-.2-82.3,11.6-82.3,11.6Z" fill="#495055"/>
          <path d="M420,313.8c-.2,12.2-23.9,18.9-23.9,18.9,0,0-9.9-12.4-7.5-13.6.9-.5,1.3-2.3,1.4-4.4.1-2,0-4.2-.1-5.5,0-.9-.1-1.4-.1-1.4,0,0,3.4-3.6,7.7-7.8,7.5-7.4,17.9-17,17.9-13.2,0,.2,0,.4,0,.7-1.8,8.5,4.8,26.3,4.8,26.3Z" fill="#eea886"/>
          <path d="M418,472.6s1.7,10.7,1.8,13.5l3.6-.7s-1-11.3-1.6-13.2l-3.9.4Z" fill="#353a3d"/>
          <path d="M360.1,481s-1.4,9.7-1.4,13.4l3.8-.5s.8-12.2,1.2-13.4l-3.6.5Z" fill="#353a3d"/>
          <path d="M410.9,295.9h0c0,0-1.1,1.6-2.8,3.7-3.6,4.6-10.5,12.1-18.1,15.1.1-2,0-4.2-.1-5.5-.8,0-1.6-.1-2.4-.3,2.1-3.7,5.1-7.5,5.1-7.5l4.8-1.4,13.5-4Z" fill="#a77860"/>
          <path d="M415.4,286.9c-2,4.5-4,7.7-4.5,9h0c-.4.8-1.3,2.2-2.8,3.7-3.9,4.2-11.2,9.7-18.3,9.5-.8,0-1.6-.1-2.4-.3-2.9-.6-6.3-2-8.1-5.6-14.8-28.9-4.1-52.6-4.1-52.6,0,0,40.4-11.4,46.7.7,4.4,8.5-1.7,25-6.5,35.5Z" fill="#eea886"/>
          <path d="M375.3,250.7s-3.8-.2-4.7-7.3c-.9-7,.9-9,.9-9,0,0,16.7-7,22.7-7.9,6-.9,20.7-1.8,24.2,2.2,0,0,8.4-1.9,10.7,12,3.6,22.1-12.3,43.5-12.3,43.5,0,0,.1-14.4-3-16.3-3.2-1.9-5.9,2.6-5.9,2.6l-6.5,1.2s9.9-21.3-2-22.1c-11.9-.8-17.2,2.4-23.9,1.2Z" fill="#434343"/>
          <path d="M407.9,264.7c.6-6.4,12.1-8.8,11.3-2.1-.8,6.7-6.4,13.1-9,12.8-2.6-.2-2.8-5.9-2.3-10.7Z" fill="#eea886"/>
          <path d="M487.6,426.8c0-.1,0-.3,0-.4-.2-9.3-4.8-46.5-12.5-71.2-3.7-12-4.6-20.3-6-21.4-2.5-1.8-24.8-8.4-34.3-12.1-.3-.1-.6-.2-.9-.4-.9-.3-1.7-.7-2.5-1-.4-.2-.8-.3-1.2-.5-.2,0-.4-.2-.7-.2-.2,0-.4-.1-.5-.2,0,0,0,0,0,0-.8.9-5.2,5.9-10.4,13.4-9.8,13.9-22.5,36.4-20.6,57.2.6,6.7,1.4,16.3,2.7,27,.1.9.2,1.8.3,2.8.3,2.5.7,5,1,7.6.2,1.5.5,3.1.7,4.6,2.6,16.1,10.7,27.1,17.9,40.2,0,.1.1.2.2.3,0,0,0,.1.1.2.2.3.3.6.5.8.2.5.5.9.7,1.4.1.3.3.5.4.8,1.4,2.6,2.7,5.4,4,8.1.8,1.8,1.7,3.5,2.5,5.3,0,.2.2.4.3.5,0,0,1.3,3.1,3,7,.6,1.5,1.3,3,2,4.6.5,1.1.9,2.2,1.4,3.2.4.9.8,1.8,1.2,2.7.8,1.9,1.5,3.6,2,4.7.4.9.6,1.5.7,1.7,2.5,6.2,4.3,11,5.1,13.2.3.9.5,1.4.5,1.4l24.9-13.8c4.7-2.4,2.3-15.1.5-20.1-1.5-4.1-3.6-8.6-5.9-13.2-1-1.9-2-3.8-3-5.7,7.8-13.6,15.7-27.7,20.7-37.2,3.2-6.2,5.3-10.5,5.3-11.5ZM448,387.8s0,0,0,0c0,0,0,0,0-.1,0,0,0-.1,0-.2,0,0,0,0,0,0,0,0,0,0,0,0,0,0,0,0,0,0,0,0,12.1,18.9,11.2,35.4-.1,2.6-2.7,9-6.4,17.3,0,0,0,0,0,0-1.3,3-2.9,6.3-4.5,9.7,0-.1-.1-.3-.2-.4-2.3-5.7-3.8-11-3.8-15.6,0,0,1-36.1,3.5-45.9Z" fill="#5b83c2"/>
          <path d="M259.1,399.3l56.4,12.3,26.9-70.3c.6-.5,8.3-4.6,13.4-7.1,5.3-2.5,12-5.7,18-8.4,2.8-1.3,5.5-2.5,7.8-3.6h.2c0,.1-3.3,11.2-7.6,38.9,0,0,0,0,0,0-.1.9-.3,1.9-.4,2.8,0,.1,0,.2,0,.3,0,.6-.2,1.3-.3,1.9,0,0,0,.2,0,.2,0,.4-.1.9-.2,1.3-.2,1.1-.3,2.2-.5,3.3-1.9,13.5-4.6,36.4-7.2,59.5h0c-2,18.3-6.7,37-8.2,50.9,0,0,0,0,0,0-.3,2.7-1,6.4-1.9,10.5-.1.5-.2.9-.3,1.4-4.2,17.6-12.3,42.6-12.3,42.6l-2.4-2.2-7-6.5c-1.6-1.5-2.2-3.8-1.6-5.8,3.9-12.5,17.1-56.8,19.5-87.9,0,0,0,0,0,0,.8-9.8-2.1-19-3.8-27.7,0,0,0,.2,0,.2-1.4,3.9-2.9,8.1-4.5,12.1h0c-4.2,11-8.4,21.1-10.2,21.8-3.9,1.5-78.2-18.9-78.7-21.8l5.1-19.2Z" fill="#5b83c2"/>
          <path d="M422.4,349.8l-11.5,6.5,4.9,5-13.1,70.7c-2.7-16.6-3.9-32.3-4.8-42-3-32.1,29.1-68.4,31.1-70.6,1.5.6,3.2,1.2,4.9,1.9l-11.5,28.4Z" fill="#4e70a6"/>
          <path d="M382,322.1s-4.3,14.1-9.3,49.1c-1.9,13.5-4.6,36.4-7.2,59.5l-2.7-66.2,5.5-5.9-4.9-6.1,10.4-26.6c2.8-1.3,5.5-2.5,7.8-3.6l.4-.2Z" fill="#4e70a6"/>
          <path d="M429.5,319.6l-9.5-5.8s-.3,5.2-23.9,18.9l6.7,18.9,26.7-32Z" fill="#f5e2d9"/>
          <path d="M389.8,316.4s.4,5.7,6.3,16.3l-13.1,17.1-1-27.7,7.8-5.7Z" fill="#f5e2d9"/>
          <path d="M396.1,332.7s2.5,10.2,1.6,13c0,0-5.6,2-9.6-.5,0,0,2.8-7.1,8-12.5Z" fill="#323657"/>
          <path d="M383,479.2c-1.4-7.2,0-28.6,0-29.6h1.2c0,.3-1.4,22.3,0,29.3l-1.2.2Z" fill="#ad9f99"/>
          <path d="M392.9,475.9s-11.5,1.4-15.3,2.3l.5,12.8,15-1.6-.3-13.6Z" fill="#69737a"/>
          <path d="M390.4,344.3s-12.8,32.3-10.7,68.4c2.2,37.5,5.7,51,5.7,51l7.9,9.9,3.5-12.1s-10.6-47.8-3.7-94.2c1.2-8.4,3.1-24.4,3.1-24.4l-5.7,1.4Z" fill="#323657"/>
          <path d="M428.8,496.7s-2.7,5.5-5.5,6.4c-2.7.9-6.7,5.4-6.7,5.4l19.3,10.2s5.1-10.1,5.4-16.5c.2-6.4-12.5-5.5-12.5-5.5Z" fill="#eea886"/>
          <path d="M427,497.2l-1.3,2.6s12.3,9,15.6,9.5l1.1-3.4-15.4-8.7Z" fill="#decbc4"/>
          <path d="M425.7,497.4s9.2,7.6,16.9,11.1l26.1-46.9-13.5-26.1s-28.9,57.3-29.5,61.8Z" fill="#5b83c2"/>
          <path d="M347.9,389.8c-.4,8.7-.4,16.4-.4,16.4h0s0,.3,0,.7c0-.1,0-.3,0-.4-1.4,3.9-2.9,8.1-4.5,12.1-.4-4.7-.5-9.1-.3-13.2.6-24.3,8.3-37.1,8.3-37.1-1.8,4.2-2.6,13.3-3,21.5Z" fill="#2f4363"/>
          <path d="M464.6,481.2l-20.9,25.2,17.9-30.9c1,1.9,2,3.8,3,5.7Z" fill="#2f4363"/>
          <path d="M313.2,449.7h-48.2c-3.3,0-6.2-2.3-6.9-5.5l-20.9-86.4c-1.1-4.5,2.3-8.8,6.9-8.8h48.2c3.3,0,6.2,2.3,6.9,5.5l20.9,86.4c1.1,4.5-2.3,8.8-6.9,8.8Z" fill="#323657"/>
          <path d="M254.3,425.7c2.4-2.2,6.9-3.4,10.8-6,3.9-2.6.6-5.3.6-5.3,4-1.4,3.6-3.2,3.1-4.4-.7-1.7-5.1-1.2-5.1-1.2,0,0,3.9-.9,5.5-1.6,1.6-.7,1.1-3.5-1.4-4.4-2.5-.9-12.6,1.6-12.6,1.6,0,0,1.6-.8,6.6-3.3,5-2.5,6.1-4.8,3.1-5.9-2-.8-6.1.8-13.8,6-5.8,3.9-5.3,4.4-5.3,4.4,0,0,5.5,22.7,8.3,20.1Z" fill="#eea886"/>
        </g>
        <g>
          <path d="M204.9,59.9c-31.6-15-68.2-7-91,17.2-5.5,5.9-10.2,12.7-13.8,20.3-11,23.2-9.6,49.1,1.4,70.2,7.7,14.6,20,27,36.1,34.6,1.6.8,3.2,1.5,4.8,2.1,7.4,2.9,14.9,4.6,22.5,5.2,31.7,2.6,63.1-14.4,77.5-44.8,18.6-39.3,1.8-86.2-37.5-104.8ZM224.6,156.4c-10.8,22.8-34.3,35.5-58.1,33.6-5.7-.5-11.3-1.7-16.9-3.9-1.2-.5-2.4-1-3.6-1.6-12.1-5.7-21.3-15-27-26-8.3-15.8-9.3-35.2-1.1-52.6,2.7-5.7,6.2-10.8,10.4-15.2,17.1-18.1,44.5-24.1,68.2-12.9,29.5,13.9,42.1,49.1,28.1,78.6Z" fill="#4aafff"/>
          <path d="M118.9,158.5l-17.5,9.1c-11.1-21.1-12.4-47-1.4-70.2,3.6-7.7,8.3-14.5,13.8-20.3l14.3,13.5c-4.1,4.4-7.7,9.5-10.4,15.2-8.2,17.4-7.2,36.8,1.1,52.6Z" fill="#2273b5"/>
          <path d="M149.6,186l-7.2,18.3c-1.6-.6-3.2-1.3-4.8-2.1-16.1-7.6-28.4-20-36.1-34.6l17.5-9.1c5.7,11,15,20.2,27,26,1.2.6,2.4,1.1,3.6,1.6Z" fill="#4dafff"/>
          <path d="M164.9,209.6c-7.6-.6-15.1-2.3-22.5-5.2l7.2-18.3c5.5,2.2,11.2,3.5,16.9,3.9l-1.6,19.6Z" fill="#4dafff"/>
        </g>
        <polygon points="147 261.5 0 261.5 0 258.6 144.1 258.6 144.1 196.3 147 196.3 147 261.5" fill="#4dafff"/>
        <rect y="228.2" width="77.4" height="17.5" fill="#e0e0e0"/>
        <g>
          <path d="M319,28.5C312.6,10.5,295.4-.5,277.4,0c-4.4.1-8.8.9-13.2,2.5-13.2,4.7-22.6,15.2-26.5,27.6-2.7,8.6-2.7,18.1.6,27.2.3.9.7,1.8,1.1,2.7,1.7,4,4,7.5,6.6,10.7,11.2,13.2,29.8,18.8,47.1,12.6,22.3-8,33.9-32.5,25.9-54.8ZM289.5,73.2c-13,4.6-26.9.5-35.3-9.4-2-2.4-3.7-5-5-8-.3-.7-.5-1.3-.8-2-2.4-6.8-2.4-14-.4-20.4,2.9-9.3,10-17.2,19.9-20.7,3.3-1.2,6.6-1.8,9.9-1.9,13.6-.4,26.4,7.9,31.2,21.3,6,16.7-2.7,35.1-19.4,41.1Z" fill="#4aafff"/>
          <path d="M248,33.3l-10.2-3.2c3.9-12.4,13.3-22.9,26.5-27.6,4.3-1.6,8.8-2.4,13.2-2.5l.3,10.7c-3.3.1-6.6.7-9.9,1.9-9.9,3.5-17,11.4-19.9,20.7Z" fill="#1a598c"/>
          <path d="M249.2,55.7l-9.8,4.3c-.4-.9-.7-1.8-1.1-2.7-3.3-9.1-3.2-18.6-.6-27.2l10.2,3.2c-2,6.4-2,13.6.4,20.4.2.7.5,1.3.8,2Z" fill="#2273b5"/>
          <path d="M246,70.7c-2.7-3.1-4.9-6.7-6.6-10.7l9.8-4.3c1.3,3,3,5.6,5,8l-8.2,7Z" fill="#4dafff"/>
        </g>
      </g>
    </g>
  </g>
</svg>